<svg width="50" height="54" viewBox="0 0 50 54" fill="none" xmlns="http://www.w3.org/2000/svg">
<ellipse opacity="0.05" cx="25" cy="50.5" rx="12" ry="3.5" fill="#141719"/>
<ellipse opacity="0.21" cx="25" cy="50.5" rx="5" ry="1.5" fill="#141719"/>
<g filter="url(#filter0_d_931_108800)">
<path fill-rule="evenodd" clip-rule="evenodd" d="M28.5618 46.7259C39.573 45.014 48 35.4911 48 24C48 11.2975 37.7025 1 25 1C12.2975 1 2 11.2975 2 24C2 35.4911 10.427 45.014 21.4382 46.7259L24.2318 50.0781C24.6316 50.5579 25.3684 50.5579 25.7682 50.0781L28.5618 46.7259Z" fill="#141719"/>
<path d="M22.6083 33.4493H18.0583C17.6888 33.4493 17.3731 33.3183 17.1109 33.0562C16.8481 32.7933 16.7166 32.4771 16.7166 32.1077V24.116H14.7916C14.4805 24.116 14.2717 23.9702 14.1651 23.6785C14.0578 23.3868 14.1208 23.1438 14.3541 22.9493L24.0958 14.1702C24.3486 13.9174 24.6499 13.791 24.9999 13.791C25.3499 13.791 25.6513 13.9174 25.9041 14.1702L29.5499 17.466V15.891C29.5499 15.5216 29.6814 15.2054 29.9443 14.9425C30.2064 14.6804 30.5222 14.5493 30.8916 14.5493H31.9416C32.3111 14.5493 32.6272 14.6804 32.8901 14.9425C33.1522 15.2054 33.2833 15.5216 33.2833 15.891V20.8202L35.6458 22.9493C35.8791 23.1438 35.9425 23.3868 35.8359 23.6785C35.7286 23.9702 35.5194 24.116 35.2083 24.116H33.2833V32.1077C33.2833 32.4771 33.1522 32.7933 32.8901 33.0562C32.6272 33.3183 32.3111 33.4493 31.9416 33.4493H27.3916V27.8202C27.3916 27.4507 27.2652 27.1396 27.0124 26.8868C26.7597 26.6341 26.4388 26.5077 26.0499 26.5077H23.9499C23.5611 26.5077 23.2402 26.6341 22.9874 26.8868C22.7347 27.1396 22.6083 27.4507 22.6083 27.8202V33.4493Z" fill="white"/>
</g>
<defs>
<filter id="filter0_d_931_108800" x="0" y="0" width="50" height="53.4375" filterUnits="userSpaceOnUse" color-interpolation-filters="sRGB">
<feFlood flood-opacity="0" result="BackgroundImageFix"/>
<feColorMatrix in="SourceAlpha" type="matrix" values="0 0 0 0 0 0 0 0 0 0 0 0 0 0 0 0 0 0 127 0" result="hardAlpha"/>
<feOffset dy="1"/>
<feGaussianBlur stdDeviation="1"/>
<feColorMatrix type="matrix" values="0 0 0 0 0 0 0 0 0 0 0 0 0 0 0 0 0 0 0.15 0"/>
<feBlend mode="normal" in2="BackgroundImageFix" result="effect1_dropShadow_931_108800"/>
<feBlend mode="normal" in="SourceGraphic" in2="effect1_dropShadow_931_108800" result="shape"/>
</filter>
</defs>
</svg>
